<svg viewBox="0 0 720 260" xmlns="http://www.w3.org/2000/svg" style="font-family:'IBM Plex Sans',sans-serif" role="img" aria-label="Size on disk for the same 1,890,000 rows, three formats">
  <text x="26" y="22" font-size="11" font-weight="600" fill="#1F2C38">SIZE ON DISK FOR THE SAME 1,890,000 ROWS, THREE FORMATS</text>
  <line x1="64" y1="216" x2="690" y2="216" stroke="#E4E8EC" stroke-width="1"/>
  <text x="56" y="220" font-size="11" text-anchor="end" fill="#4A5A68" style="font-variant-numeric:tabular-nums">0 MB</text>
  <line x1="64" y1="181.6" x2="690" y2="181.6" stroke="#E4E8EC" stroke-width="1"/>
  <text x="56" y="185.6" font-size="11" text-anchor="end" fill="#4A5A68" style="font-variant-numeric:tabular-nums">50 MB</text>
  <line x1="64" y1="147.2" x2="690" y2="147.2" stroke="#E4E8EC" stroke-width="1"/>
  <text x="56" y="151.2" font-size="11" text-anchor="end" fill="#4A5A68" style="font-variant-numeric:tabular-nums">100 MB</text>
  <line x1="64" y1="112.8" x2="690" y2="112.8" stroke="#E4E8EC" stroke-width="1"/>
  <text x="56" y="116.8" font-size="11" text-anchor="end" fill="#4A5A68" style="font-variant-numeric:tabular-nums">150 MB</text>
  <line x1="64" y1="78.4" x2="690" y2="78.4" stroke="#E4E8EC" stroke-width="1"/>
  <text x="56" y="82.4" font-size="11" text-anchor="end" fill="#4A5A68" style="font-variant-numeric:tabular-nums">200 MB</text>
  <line x1="64" y1="44" x2="690" y2="44" stroke="#E4E8EC" stroke-width="1"/>
  <text x="56" y="48" font-size="11" text-anchor="end" fill="#4A5A68" style="font-variant-numeric:tabular-nums">250 MB</text>
  <line x1="64" y1="216" x2="690" y2="216" stroke="#C9CFC6" stroke-width="1"/>
  <path d="M156.3,216 V79.1 Q156.3,75.1 160.3,75.1 H176.3 Q180.3,75.1 180.3,79.1 V216 Z" fill="#D64B2A"><title>CSV: 205 MB</title></path>
  <text x="168.3" y="68.1" font-size="11" text-anchor="middle" fill="#1F2C38" style="font-variant-numeric:tabular-nums">205 MB</text>
  <text x="168.3" y="234" font-size="11" text-anchor="middle" fill="#4A5A68">CSV</text>
  <path d="M365,216 V168 Q365,164 369,164 H385 Q389,164 389,168 V216 Z" fill="#E8850C"><title>Parquet (1 file): 76 MB</title></path>
  <text x="377" y="157" font-size="11" text-anchor="middle" fill="#1F2C38" style="font-variant-numeric:tabular-nums">76 MB</text>
  <text x="377" y="234" font-size="11" text-anchor="middle" fill="#4A5A68">Parquet (1 file)</text>
  <path d="M573.7,216 V151 Q573.7,147 577.7,147 H593.7 Q597.7,147 597.7,151 V216 Z" fill="#3A56C5"><title>Parquet (partitioned): 100 MB</title></path>
  <text x="585.7" y="140" font-size="11" text-anchor="middle" fill="#1F2C38" style="font-variant-numeric:tabular-nums">100 MB</text>
  <text x="585.7" y="234" font-size="11" text-anchor="middle" fill="#4A5A68">Parquet (partitioned)</text>
</svg>
