<svg viewBox="0 0 720 280" xmlns="http://www.w3.org/2000/svg" style="font-family:'IBM Plex Sans',sans-serif" role="img" aria-label="Sharpe ratio by lookback window — honest vs naive, 20 simulated years">
  <text x="26" y="22" font-size="11" font-weight="600" fill="#1F2C38">SHARPE RATIO BY LOOKBACK WINDOW — HONEST VS NAIVE, 20 SIMULATED YEARS</text>
  <line x1="26" y1="32" x2="42" y2="32" stroke="#3A56C5" stroke-width="2.5" stroke-linecap="round"/>
  <text x="48" y="36" font-size="11" fill="#4A5A68">Honest (lag=1)</text>
  <line x1="159.60000000000002" y1="32" x2="175.60000000000002" y2="32" stroke="#D64B2A" stroke-width="2.5" stroke-linecap="round"/>
  <text x="181.60000000000002" y="36" font-size="11" fill="#4A5A68">Naive (lag=0)</text>
  <line x1="64" y1="236" x2="690" y2="236" stroke="#E4E8EC" stroke-width="1"/>
  <text x="56" y="240" font-size="11" text-anchor="end" fill="#4A5A68" style="font-variant-numeric:tabular-nums">−20.0</text>
  <line x1="64" y1="200" x2="690" y2="200" stroke="#E4E8EC" stroke-width="1"/>
  <text x="56" y="204" font-size="11" text-anchor="end" fill="#4A5A68" style="font-variant-numeric:tabular-nums">0.0</text>
  <line x1="64" y1="164" x2="690" y2="164" stroke="#E4E8EC" stroke-width="1"/>
  <text x="56" y="168" font-size="11" text-anchor="end" fill="#4A5A68" style="font-variant-numeric:tabular-nums">20.0</text>
  <line x1="64" y1="128" x2="690" y2="128" stroke="#E4E8EC" stroke-width="1"/>
  <text x="56" y="132" font-size="11" text-anchor="end" fill="#4A5A68" style="font-variant-numeric:tabular-nums">40.0</text>
  <line x1="64" y1="92" x2="690" y2="92" stroke="#E4E8EC" stroke-width="1"/>
  <text x="56" y="96" font-size="11" text-anchor="end" fill="#4A5A68" style="font-variant-numeric:tabular-nums">60.0</text>
  <line x1="64" y1="56" x2="690" y2="56" stroke="#E4E8EC" stroke-width="1"/>
  <text x="56" y="60" font-size="11" text-anchor="end" fill="#4A5A68" style="font-variant-numeric:tabular-nums">80.0</text>
  <line x1="64" y1="200" x2="690" y2="200" stroke="#C9CFC6" stroke-width="1"/>
  <path d="M117.2,200 V199.8 Q117.2,199.7 117.4,199.7 H141.1 Q141.2,199.7 141.2,199.8 V200 Z" fill="#3A56C5"><title>k=1 · Honest (lag=1): 0.2</title></path>
  <text x="129.2" y="193.7" font-size="10" text-anchor="middle" fill="#1F2C38" style="font-variant-numeric:tabular-nums">0.2</text>
  <path d="M143.2,200 V103.6 Q143.2,99.6 147.2,99.6 H163.2 Q167.2,99.6 167.2,103.6 V200 Z" fill="#D64B2A"><title>k=1 · Naive (lag=0): 55.8</title></path>
  <text x="155.2" y="93.6" font-size="10" text-anchor="middle" fill="#1F2C38" style="font-variant-numeric:tabular-nums">55.8</text>
  <text x="142.2" y="254" font-size="11" text-anchor="middle" fill="#4A5A68">k=1</text>
  <path d="M273.8,200 V200.1 Q273.8,200.2 273.9,200.2 H297.6 Q297.8,200.2 297.8,200.1 V200 Z" fill="#3A56C5"><title>k=5 · Honest (lag=1): −0.1</title></path>
  <text x="285.8" y="213.2" font-size="10" text-anchor="middle" fill="#1F2C38" style="font-variant-numeric:tabular-nums">−0.1</text>
  <path d="M299.8,200 V174.5 Q299.8,170.5 303.8,170.5 H319.8 Q323.8,170.5 323.8,174.5 V200 Z" fill="#D64B2A"><title>k=5 · Naive (lag=0): 16.4</title></path>
  <text x="311.8" y="164.5" font-size="10" text-anchor="middle" fill="#1F2C38" style="font-variant-numeric:tabular-nums">16.4</text>
  <text x="298.8" y="254" font-size="11" text-anchor="middle" fill="#4A5A68">k=5</text>
  <path d="M430.2,200 V200.3 Q430.2,200.6 430.5,200.6 H454 Q454.2,200.6 454.2,200.3 V200 Z" fill="#3A56C5"><title>k=20 · Honest (lag=1): −0.3</title></path>
  <text x="442.2" y="213.6" font-size="10" text-anchor="middle" fill="#1F2C38" style="font-variant-numeric:tabular-nums">−0.3</text>
  <path d="M456.2,200 V190.1 Q456.2,186.1 460.2,186.1 H476.2 Q480.2,186.1 480.2,190.1 V200 Z" fill="#D64B2A"><title>k=20 · Naive (lag=0): 7.7</title></path>
  <text x="468.2" y="180.1" font-size="10" text-anchor="middle" fill="#1F2C38" style="font-variant-numeric:tabular-nums">7.7</text>
  <text x="455.2" y="254" font-size="11" text-anchor="middle" fill="#4A5A68">k=20</text>
  <path d="M586.8,200 V200.1 Q586.8,200.3 586.9,200.3 H610.6 Q610.8,200.3 610.8,200.1 V200 Z" fill="#3A56C5"><title>k=60 · Honest (lag=1): −0.2</title></path>
  <text x="598.8" y="213.3" font-size="10" text-anchor="middle" fill="#1F2C38" style="font-variant-numeric:tabular-nums">−0.2</text>
  <path d="M612.8,200 V195.9 Q612.8,191.9 616.8,191.9 H632.8 Q636.8,191.9 636.8,195.9 V200 Z" fill="#D64B2A"><title>k=60 · Naive (lag=0): 4.5</title></path>
  <text x="624.8" y="185.9" font-size="10" text-anchor="middle" fill="#1F2C38" style="font-variant-numeric:tabular-nums">4.5</text>
  <text x="611.8" y="254" font-size="11" text-anchor="middle" fill="#4A5A68">k=60</text>
</svg>
