<svg viewBox="0 0 720 300" xmlns="http://www.w3.org/2000/svg" style="font-family:'IBM Plex Sans',sans-serif" role="img" aria-label="Price of storage vs inventory (1 = normal): annualised 1-month spread, storage model">
  <text x="26" y="22" font-size="11" font-weight="600" fill="#1F2C38">PRICE OF STORAGE VS INVENTORY (1 = NORMAL): ANNUALISED 1-MONTH SPREAD, STORAGE MODEL</text>
  <line x1="64" y1="264" x2="602" y2="264" stroke="#E4E8EC" stroke-width="1"/>
  <text x="56" y="268" font-size="11" text-anchor="end" fill="#4A5A68" style="font-variant-numeric:tabular-nums">−40%</text>
  <line x1="64" y1="219.2" x2="602" y2="219.2" stroke="#E4E8EC" stroke-width="1"/>
  <text x="56" y="223.2" font-size="11" text-anchor="end" fill="#4A5A68" style="font-variant-numeric:tabular-nums">−30%</text>
  <line x1="64" y1="174.4" x2="602" y2="174.4" stroke="#E4E8EC" stroke-width="1"/>
  <text x="56" y="178.4" font-size="11" text-anchor="end" fill="#4A5A68" style="font-variant-numeric:tabular-nums">−20%</text>
  <line x1="64" y1="129.6" x2="602" y2="129.6" stroke="#E4E8EC" stroke-width="1"/>
  <text x="56" y="133.6" font-size="11" text-anchor="end" fill="#4A5A68" style="font-variant-numeric:tabular-nums">−10%</text>
  <line x1="64" y1="84.8" x2="602" y2="84.8" stroke="#E4E8EC" stroke-width="1"/>
  <text x="56" y="88.8" font-size="11" text-anchor="end" fill="#4A5A68" style="font-variant-numeric:tabular-nums">0%</text>
  <line x1="64" y1="40" x2="602" y2="40" stroke="#E4E8EC" stroke-width="1"/>
  <text x="56" y="44" font-size="11" text-anchor="end" fill="#4A5A68" style="font-variant-numeric:tabular-nums">10%</text>
  <line x1="64" y1="264" x2="602" y2="264" stroke="#C9CFC6" stroke-width="1"/>
  <line x1="153.7" y1="264" x2="153.7" y2="268" stroke="#C9CFC6" stroke-width="1"/>
  <text x="153.7" y="282" font-size="11" text-anchor="middle" fill="#4A5A68">0.5</text>
  <line x1="265.8" y1="264" x2="265.8" y2="268" stroke="#C9CFC6" stroke-width="1"/>
  <text x="265.8" y="282" font-size="11" text-anchor="middle" fill="#4A5A68">1</text>
  <line x1="377.8" y1="264" x2="377.8" y2="268" stroke="#C9CFC6" stroke-width="1"/>
  <text x="377.8" y="282" font-size="11" text-anchor="middle" fill="#4A5A68">1.5</text>
  <line x1="489.9" y1="264" x2="489.9" y2="268" stroke="#C9CFC6" stroke-width="1"/>
  <text x="489.9" y="282" font-size="11" text-anchor="middle" fill="#4A5A68">2</text>
  <line x1="602" y1="264" x2="602" y2="268" stroke="#C9CFC6" stroke-width="1"/>
  <text x="602" y="282" font-size="11" text-anchor="middle" fill="#4A5A68">2.5</text>
  <line x1="64" y1="44.5" x2="602" y2="44.5" stroke="#4A5A68" stroke-width="1"/>
  <text x="68" y="39.5" font-size="10.5" fill="#4A5A68">full carry (r_f + u)</text>
  <polyline points="64,228.2 69.6,216 75.2,204.5 80.8,193.9 86.4,184 92,174.7 97.6,166 103.2,157.9 108.8,150.4 114.4,143.4 120,136.8 125.6,130.6 131.2,124.9 136.9,119.6 142.5,114.6 148.1,109.9 153.7,105.6 159.3,101.5 164.9,97.7 170.5,94.2 176.1,90.9 181.7,87.8 187.3,84.9 192.9,82.2 198.5,79.7 204.1,77.4 209.7,75.2 215.3,73.1 220.9,71.2 226.5,69.5 232.1,67.8 237.7,66.3 243.3,64.8 248.9,63.5 254.5,62.2 260.1,61 265.8,59.9 271.4,58.9 277,57.9 282.6,57 288.2,56.2 293.8,55.4 299.4,54.7 305,54 310.6,53.4 316.2,52.8 321.8,52.2 327.4,51.7 333,51.2 338.6,50.8 344.2,50.4 349.8,50 355.4,49.6 361,49.3 366.6,49 372.2,48.7 377.8,48.4 383.4,48.1 389,47.9 394.6,47.7 400.2,47.4 405.9,47.3 411.5,47.1 417.1,46.9 422.7,46.7 428.3,46.6 433.9,46.4 439.5,46.3 445.1,46.2 450.7,46.1 456.3,46 461.9,45.9 467.5,45.8 473.1,45.7 478.7,45.6 484.3,45.5 489.9,45.5 495.5,45.4 501.1,45.3 506.7,45.3 512.3,45.2 517.9,45.2 523.5,45.1 529.1,45.1 534.8,45.1 540.4,45 546,45 551.6,44.9 557.2,44.9 562.8,44.9 568.4,44.9 574,44.8 579.6,44.8 585.2,44.8 590.8,44.8 596.4,44.7 602,44.7" fill="none" stroke="#3A56C5" stroke-width="2" stroke-linejoin="round" stroke-linecap="round"><title>1-month calendar spread</title></polyline>
</svg>
