<svg viewBox="0 0 720 300" xmlns="http://www.w3.org/2000/svg" style="font-family:'IBM Plex Sans',sans-serif" role="img" aria-label="Value of a 100-strike call against the stock price (x = stock price, $)">
  <text x="26" y="22" font-size="11" font-weight="600" fill="#1F2C38">VALUE OF A 100-STRIKE CALL AGAINST THE STOCK PRICE (X = STOCK PRICE, $)</text>
  <line x1="26" y1="32" x2="42" y2="32" stroke="#3A56C5" stroke-width="2.5" stroke-linecap="round"/>
  <text x="48" y="36" font-size="11" fill="#4A5A68">3 months to expiry</text>
  <line x1="185.2" y1="32" x2="201.2" y2="32" stroke="#E8850C" stroke-width="2.5" stroke-linecap="round"/>
  <text x="207.2" y="36" font-size="11" fill="#4A5A68">1 month to expiry</text>
  <line x1="338.0" y1="32" x2="354.0" y2="32" stroke="#4A5A68" stroke-width="2.5" stroke-linecap="round"/>
  <text x="360.0" y="36" font-size="11" fill="#4A5A68">at expiry = intrinsic value</text>
  <line x1="64" y1="264" x2="602" y2="264" stroke="#E4E8EC" stroke-width="1"/>
  <text x="56" y="268" font-size="11" text-anchor="end" fill="#4A5A68" style="font-variant-numeric:tabular-nums">$0</text>
  <line x1="64" y1="221.6" x2="602" y2="221.6" stroke="#E4E8EC" stroke-width="1"/>
  <text x="56" y="225.6" font-size="11" text-anchor="end" fill="#4A5A68" style="font-variant-numeric:tabular-nums">$5</text>
  <line x1="64" y1="179.2" x2="602" y2="179.2" stroke="#E4E8EC" stroke-width="1"/>
  <text x="56" y="183.2" font-size="11" text-anchor="end" fill="#4A5A68" style="font-variant-numeric:tabular-nums">$10</text>
  <line x1="64" y1="136.8" x2="602" y2="136.8" stroke="#E4E8EC" stroke-width="1"/>
  <text x="56" y="140.8" font-size="11" text-anchor="end" fill="#4A5A68" style="font-variant-numeric:tabular-nums">$15</text>
  <line x1="64" y1="94.4" x2="602" y2="94.4" stroke="#E4E8EC" stroke-width="1"/>
  <text x="56" y="98.4" font-size="11" text-anchor="end" fill="#4A5A68" style="font-variant-numeric:tabular-nums">$20</text>
  <line x1="64" y1="52" x2="602" y2="52" stroke="#E4E8EC" stroke-width="1"/>
  <text x="56" y="56" font-size="11" text-anchor="end" fill="#4A5A68" style="font-variant-numeric:tabular-nums">$25</text>
  <line x1="64" y1="264" x2="602" y2="264" stroke="#C9CFC6" stroke-width="1"/>
  <line x1="64" y1="264" x2="64" y2="268" stroke="#C9CFC6" stroke-width="1"/>
  <text x="64" y="282" font-size="11" text-anchor="middle" fill="#4A5A68">80</text>
  <line x1="198.5" y1="264" x2="198.5" y2="268" stroke="#C9CFC6" stroke-width="1"/>
  <text x="198.5" y="282" font-size="11" text-anchor="middle" fill="#4A5A68">90</text>
  <line x1="333" y1="264" x2="333" y2="268" stroke="#C9CFC6" stroke-width="1"/>
  <text x="333" y="282" font-size="11" text-anchor="middle" fill="#4A5A68">100</text>
  <line x1="467.5" y1="264" x2="467.5" y2="268" stroke="#C9CFC6" stroke-width="1"/>
  <text x="467.5" y="282" font-size="11" text-anchor="middle" fill="#4A5A68">110</text>
  <line x1="602" y1="264" x2="602" y2="268" stroke="#C9CFC6" stroke-width="1"/>
  <text x="602" y="282" font-size="11" text-anchor="middle" fill="#4A5A68">120</text>
  <polyline points="64,263.6 67.4,263.5 70.7,263.5 74.1,263.4 77.5,263.4 80.8,263.3 84.2,263.3 87.5,263.2 90.9,263.1 94.3,263 97.6,263 101,262.9 104.3,262.8 107.7,262.7 111.1,262.6 114.4,262.5 117.8,262.4 121.2,262.3 124.5,262.1 127.9,262 131.2,261.8 134.6,261.7 138,261.5 141.3,261.4 144.7,261.2 148.1,261 151.4,260.8 154.8,260.6 158.1,260.4 161.5,260.1 164.9,259.9 168.2,259.6 171.6,259.4 175,259.1 178.3,258.8 181.7,258.5 185.1,258.2 188.4,257.8 191.8,257.5 195.1,257.1 198.5,256.7 201.9,256.3 205.2,255.9 208.6,255.5 212,255 215.3,254.6 218.7,254.1 222,253.6 225.4,253.1 228.8,252.6 232.1,252 235.5,251.4 238.8,250.8 242.2,250.2 245.6,249.6 248.9,249 252.3,248.3 255.7,247.6 259,246.9 262.4,246.2 265.8,245.4 269.1,244.7 272.5,243.9 275.8,243.1 279.2,242.2 282.6,241.4 285.9,240.5 289.3,239.6 292.6,238.7 296,237.7 299.4,236.8 302.7,235.8 306.1,234.8 309.5,233.8 312.8,232.7 316.2,231.6 319.5,230.5 322.9,229.4 326.3,228.3 329.6,227.1 333,226 336.4,224.8 339.7,223.6 343.1,222.3 346.4,221.1 349.8,219.8 353.2,218.5 356.5,217.2 359.9,215.8 363.3,214.5 366.6,213.1 370,211.7 373.3,210.3 376.7,208.8 380.1,207.4 383.4,205.9 386.8,204.4 390.2,202.9 393.5,201.4 396.9,199.9 400.2,198.3 403.6,196.7 407,195.1 410.3,193.5 413.7,191.9 417.1,190.3 420.4,188.6 423.8,187 427.2,185.3 430.5,183.6 433.9,181.9 437.2,180.2 440.6,178.4 444,176.7 447.3,174.9 450.7,173.1 454.1,171.4 457.4,169.6 460.8,167.8 464.1,165.9 467.5,164.1 470.9,162.3 474.2,160.4 477.6,158.6 480.9,156.7 484.3,154.8 487.7,152.9 491,151 494.4,149.1 497.8,147.2 501.1,145.3 504.5,143.4 507.8,141.4 511.2,139.5 514.6,137.5 517.9,135.6 521.3,133.6 524.7,131.6 528,129.7 531.4,127.7 534.8,125.7 538.1,123.7 541.5,121.7 544.8,119.7 548.2,117.7 551.6,115.7 554.9,113.7 558.3,111.6 561.7,109.6 565,107.6 568.4,105.5 571.7,103.5 575.1,101.5 578.5,99.4 581.8,97.4 585.2,95.3 588.5,93.3 591.9,91.2 595.3,89.1 598.6,87.1 602,85" fill="none" stroke="#3A56C5" stroke-width="2" stroke-linejoin="round" stroke-linecap="round"><title>3 months to expiry</title></polyline>
  <circle cx="602" cy="85" r="4" fill="#3A56C5" stroke="#FBFBF8" stroke-width="2"><title>3 months to expiry: $21</title></circle>
  <polyline points="64,264 67.4,264 70.7,264 74.1,264 77.5,264 80.8,264 84.2,264 87.5,264 90.9,264 94.3,264 97.6,264 101,264 104.3,264 107.7,264 111.1,264 114.4,264 117.8,264 121.2,264 124.5,264 127.9,264 131.2,264 134.6,264 138,263.9 141.3,263.9 144.7,263.9 148.1,263.9 151.4,263.9 154.8,263.9 158.1,263.9 161.5,263.8 164.9,263.8 168.2,263.8 171.6,263.7 175,263.7 178.3,263.7 181.7,263.6 185.1,263.6 188.4,263.5 191.8,263.4 195.1,263.4 198.5,263.3 201.9,263.2 205.2,263.1 208.6,263 212,262.9 215.3,262.7 218.7,262.6 222,262.4 225.4,262.2 228.8,262 232.1,261.8 235.5,261.6 238.8,261.4 242.2,261.1 245.6,260.8 248.9,260.5 252.3,260.2 255.7,259.8 259,259.4 262.4,259 265.8,258.6 269.1,258.1 272.5,257.6 275.8,257.1 279.2,256.6 282.6,256 285.9,255.4 289.3,254.7 292.6,254 296,253.3 299.4,252.6 302.7,251.8 306.1,250.9 309.5,250.1 312.8,249.2 316.2,248.3 319.5,247.3 322.9,246.3 326.3,245.3 329.6,244.2 333,243.1 336.4,241.9 339.7,240.7 343.1,239.5 346.4,238.2 349.8,236.9 353.2,235.6 356.5,234.3 359.9,232.9 363.3,231.4 366.6,230 370,228.5 373.3,227 376.7,225.4 380.1,223.8 383.4,222.2 386.8,220.6 390.2,218.9 393.5,217.2 396.9,215.5 400.2,213.8 403.6,212 407,210.2 410.3,208.4 413.7,206.6 417.1,204.8 420.4,202.9 423.8,201 427.2,199.2 430.5,197.2 433.9,195.3 437.2,193.4 440.6,191.4 444,189.5 447.3,187.5 450.7,185.5 454.1,183.5 457.4,181.5 460.8,179.5 464.1,177.5 467.5,175.5 470.9,173.4 474.2,171.4 477.6,169.3 480.9,167.3 484.3,165.2 487.7,163.1 491,161.1 494.4,159 497.8,156.9 501.1,154.8 504.5,152.8 507.8,150.7 511.2,148.6 514.6,146.5 517.9,144.4 521.3,142.3 524.7,140.2 528,138.1 531.4,136 534.8,133.9 538.1,131.8 541.5,129.6 544.8,127.5 548.2,125.4 551.6,123.3 554.9,121.2 558.3,119.1 561.7,117 565,114.9 568.4,112.7 571.7,110.6 575.1,108.5 578.5,106.4 581.8,104.3 585.2,102.2 588.5,100 591.9,97.9 595.3,95.8 598.6,93.7 602,91.6" fill="none" stroke="#E8850C" stroke-width="2" stroke-linejoin="round" stroke-linecap="round"><title>1 month to expiry</title></polyline>
  <circle cx="602" cy="91.6" r="4" fill="#E8850C" stroke="#FBFBF8" stroke-width="2"><title>1 month to expiry: $20</title></circle>
  <polyline points="64,264 67.4,264 70.7,264 74.1,264 77.5,264 80.8,264 84.2,264 87.5,264 90.9,264 94.3,264 97.6,264 101,264 104.3,264 107.7,264 111.1,264 114.4,264 117.8,264 121.2,264 124.5,264 127.9,264 131.2,264 134.6,264 138,264 141.3,264 144.7,264 148.1,264 151.4,264 154.8,264 158.1,264 161.5,264 164.9,264 168.2,264 171.6,264 175,264 178.3,264 181.7,264 185.1,264 188.4,264 191.8,264 195.1,264 198.5,264 201.9,264 205.2,264 208.6,264 212,264 215.3,264 218.7,264 222,264 225.4,264 228.8,264 232.1,264 235.5,264 238.8,264 242.2,264 245.6,264 248.9,264 252.3,264 255.7,264 259,264 262.4,264 265.8,264 269.1,264 272.5,264 275.8,264 279.2,264 282.6,264 285.9,264 289.3,264 292.6,264 296,264 299.4,264 302.7,264 306.1,264 309.5,264 312.8,264 316.2,264 319.5,264 322.9,264 326.3,264 329.6,264 333,264 336.4,261.9 339.7,259.8 343.1,257.6 346.4,255.5 349.8,253.4 353.2,251.3 356.5,249.2 359.9,247 363.3,244.9 366.6,242.8 370,240.7 373.3,238.6 376.7,236.4 380.1,234.3 383.4,232.2 386.8,230.1 390.2,228 393.5,225.8 396.9,223.7 400.2,221.6 403.6,219.5 407,217.4 410.3,215.2 413.7,213.1 417.1,211 420.4,208.9 423.8,206.8 427.2,204.6 430.5,202.5 433.9,200.4 437.2,198.3 440.6,196.2 444,194 447.3,191.9 450.7,189.8 454.1,187.7 457.4,185.6 460.8,183.4 464.1,181.3 467.5,179.2 470.9,177.1 474.2,175 477.6,172.8 480.9,170.7 484.3,168.6 487.7,166.5 491,164.4 494.4,162.2 497.8,160.1 501.1,158 504.5,155.9 507.8,153.8 511.2,151.6 514.6,149.5 517.9,147.4 521.3,145.3 524.7,143.2 528,141 531.4,138.9 534.8,136.8 538.1,134.7 541.5,132.6 544.8,130.4 548.2,128.3 551.6,126.2 554.9,124.1 558.3,122 561.7,119.8 565,117.7 568.4,115.6 571.7,113.5 575.1,111.4 578.5,109.2 581.8,107.1 585.2,105 588.5,102.9 591.9,100.8 595.3,98.6 598.6,96.5 602,94.4" fill="none" stroke="#4A5A68" stroke-width="1.5" stroke-linejoin="round" stroke-linecap="round"><title>at expiry = intrinsic value</title></polyline>
  <circle cx="602" cy="94.4" r="4" fill="#4A5A68" stroke="#FBFBF8" stroke-width="2"><title>at expiry = intrinsic value: $20</title></circle>
  <text x="614" y="89" font-size="11" fill="#1F2C38">3 months: $21</text>
  <line x1="607" y1="91.6" x2="614" y2="95" stroke="#C9CFC6" stroke-width="1"/>
  <text x="614" y="103" font-size="11" fill="#1F2C38">1 month: $20</text>
  <line x1="607" y1="94.4" x2="614" y2="109" stroke="#C9CFC6" stroke-width="1"/>
  <text x="614" y="117" font-size="11" fill="#1F2C38">expiry: $20</text>
</svg>
