<svg viewBox="0 0 720 260" xmlns="http://www.w3.org/2000/svg" style="font-family:'IBM Plex Sans',sans-serif" role="img" aria-label="Median excess kurtosis falls as returns are summed over longer horizons">
  <text x="26" y="22" font-size="11" font-weight="600" fill="#1F2C38">MEDIAN EXCESS KURTOSIS FALLS AS RETURNS ARE SUMMED OVER LONGER HORIZONS</text>
  <line x1="64" y1="216" x2="690" y2="216" stroke="#E4E8EC" stroke-width="1"/>
  <text x="56" y="220" font-size="11" text-anchor="end" fill="#4A5A68" style="font-variant-numeric:tabular-nums">0.0</text>
  <line x1="64" y1="173" x2="690" y2="173" stroke="#E4E8EC" stroke-width="1"/>
  <text x="56" y="177" font-size="11" text-anchor="end" fill="#4A5A68" style="font-variant-numeric:tabular-nums">2.0</text>
  <line x1="64" y1="130" x2="690" y2="130" stroke="#E4E8EC" stroke-width="1"/>
  <text x="56" y="134" font-size="11" text-anchor="end" fill="#4A5A68" style="font-variant-numeric:tabular-nums">4.0</text>
  <line x1="64" y1="87" x2="690" y2="87" stroke="#E4E8EC" stroke-width="1"/>
  <text x="56" y="91" font-size="11" text-anchor="end" fill="#4A5A68" style="font-variant-numeric:tabular-nums">6.0</text>
  <line x1="64" y1="44" x2="690" y2="44" stroke="#E4E8EC" stroke-width="1"/>
  <text x="56" y="48" font-size="11" text-anchor="end" fill="#4A5A68" style="font-variant-numeric:tabular-nums">8.0</text>
  <line x1="64" y1="216" x2="690" y2="216" stroke="#C9CFC6" stroke-width="1"/>
  <path d="M130.2,216 V91.3 Q130.2,87.3 134.2,87.3 H150.2 Q154.2,87.3 154.2,91.3 V216 Z" fill="#3A56C5"><title>1 day: 6.0</title></path>
  <text x="142.2" y="80.3" font-size="11" text-anchor="middle" fill="#1F2C38" style="font-variant-numeric:tabular-nums">6.0</text>
  <text x="142.2" y="234" font-size="11" text-anchor="middle" fill="#4A5A68">1 day</text>
  <path d="M286.8,216 V147.3 Q286.8,143.3 290.8,143.3 H306.8 Q310.8,143.3 310.8,147.3 V216 Z" fill="#3A56C5"><title>1 week: 3.4</title></path>
  <text x="298.8" y="136.3" font-size="11" text-anchor="middle" fill="#1F2C38" style="font-variant-numeric:tabular-nums">3.4</text>
  <text x="298.8" y="234" font-size="11" text-anchor="middle" fill="#4A5A68">1 week</text>
  <path d="M443.2,216 V173 Q443.2,169 447.2,169 H463.2 Q467.2,169 467.2,173 V216 Z" fill="#3A56C5"><title>1 month: 2.2</title></path>
  <text x="455.2" y="162" font-size="11" text-anchor="middle" fill="#1F2C38" style="font-variant-numeric:tabular-nums">2.2</text>
  <text x="455.2" y="234" font-size="11" text-anchor="middle" fill="#4A5A68">1 month</text>
  <path d="M599.8,216 V191.3 Q599.8,187.3 603.8,187.3 H619.8 Q623.8,187.3 623.8,191.3 V216 Z" fill="#3A56C5"><title>1 quarter: 1.3</title></path>
  <text x="611.8" y="180.3" font-size="11" text-anchor="middle" fill="#1F2C38" style="font-variant-numeric:tabular-nums">1.3</text>
  <text x="611.8" y="234" font-size="11" text-anchor="middle" fill="#4A5A68">1 quarter</text>
</svg>
