<svg viewBox="0 0 720 300" xmlns="http://www.w3.org/2000/svg" style="font-family:'IBM Plex Sans',sans-serif" role="img" aria-label="One simulated market&#x27;s volatility over 3 years: it comes in bursts">
  <text x="26" y="22" font-size="11" font-weight="600" fill="#1F2C38">ONE SIMULATED MARKET&#x27;S VOLATILITY OVER 3 YEARS: IT COMES IN BURSTS</text>
  <line x1="64" y1="264" x2="602" y2="264" stroke="#E4E8EC" stroke-width="1"/>
  <text x="56" y="268" font-size="11" text-anchor="end" fill="#4A5A68" style="font-variant-numeric:tabular-nums">0%</text>
  <line x1="64" y1="208" x2="602" y2="208" stroke="#E4E8EC" stroke-width="1"/>
  <text x="56" y="212" font-size="11" text-anchor="end" fill="#4A5A68" style="font-variant-numeric:tabular-nums">10%</text>
  <line x1="64" y1="152" x2="602" y2="152" stroke="#E4E8EC" stroke-width="1"/>
  <text x="56" y="156" font-size="11" text-anchor="end" fill="#4A5A68" style="font-variant-numeric:tabular-nums">20%</text>
  <line x1="64" y1="96" x2="602" y2="96" stroke="#E4E8EC" stroke-width="1"/>
  <text x="56" y="100" font-size="11" text-anchor="end" fill="#4A5A68" style="font-variant-numeric:tabular-nums">30%</text>
  <line x1="64" y1="40" x2="602" y2="40" stroke="#E4E8EC" stroke-width="1"/>
  <text x="56" y="44" font-size="11" text-anchor="end" fill="#4A5A68" style="font-variant-numeric:tabular-nums">40%</text>
  <line x1="64" y1="264" x2="602" y2="264" stroke="#C9CFC6" stroke-width="1"/>
  <line x1="63.3" y1="264" x2="63.3" y2="268" stroke="#C9CFC6" stroke-width="1"/>
  <text x="63.3" y="282" font-size="11" text-anchor="middle" fill="#4A5A68">0</text>
  <line x1="153.1" y1="264" x2="153.1" y2="268" stroke="#C9CFC6" stroke-width="1"/>
  <text x="153.1" y="282" font-size="11" text-anchor="middle" fill="#4A5A68">0.5</text>
  <line x1="242.9" y1="264" x2="242.9" y2="268" stroke="#C9CFC6" stroke-width="1"/>
  <text x="242.9" y="282" font-size="11" text-anchor="middle" fill="#4A5A68">1</text>
  <line x1="332.6" y1="264" x2="332.6" y2="268" stroke="#C9CFC6" stroke-width="1"/>
  <text x="332.6" y="282" font-size="11" text-anchor="middle" fill="#4A5A68">1.5</text>
  <line x1="422.4" y1="264" x2="422.4" y2="268" stroke="#C9CFC6" stroke-width="1"/>
  <text x="422.4" y="282" font-size="11" text-anchor="middle" fill="#4A5A68">2</text>
  <line x1="512.2" y1="264" x2="512.2" y2="268" stroke="#C9CFC6" stroke-width="1"/>
  <text x="512.2" y="282" font-size="11" text-anchor="middle" fill="#4A5A68">2.5</text>
  <line x1="602" y1="264" x2="602" y2="268" stroke="#C9CFC6" stroke-width="1"/>
  <text x="602" y="282" font-size="11" text-anchor="middle" fill="#4A5A68">3</text>
  <polyline points="64,175.1 64.7,175.2 66.1,180.5 66.9,172.1 69,179.4 70.4,182.3 71.1,183.6 73.3,192.1 74.7,189.7 75.4,192.4 76.8,197 78.3,197.2 79.7,201.2 80.4,196.8 82.5,199.4 84,198.4 85.4,202 86.8,205.2 87.5,206.7 88.9,207.8 90.4,210.2 91.8,211.9 92.5,213 93.9,213.4 96.1,215.3 97.5,210.8 98.9,212.4 99.6,209.8 101.1,208.4 102.5,210.1 103.9,212.5 104.6,209.5 106.8,210.5 108.2,207.2 109.6,209.6 110.3,205.3 112.5,209.3 113.2,210.6 114.6,209.5 116,210.6 116.7,211.8 118.2,193.5 120.3,192.3 121,160.8 122.4,168.9 124.6,178.5 126,175.5 126.7,178.7 128.1,183.2 129.6,188 130.3,187 132.4,193.8 133.8,193.5 134.5,195.7 136.7,197.3 138.1,201.1 138.8,202 140.2,205.3 141.7,208.3 142.4,209.3 143.8,209.9 145.9,211.8 146.7,210.5 148.8,212.5 149.5,208.8 151.6,211.9 152.4,212.9 153.8,209 155.2,211.4 155.9,212.5 157.3,210.1 158.8,210.9 160.2,213.1 161.6,213.2 163,214.7 165.2,215.3 165.9,213.2 166.6,203 168.7,204.1 170.2,154.5 171.6,160 172.3,106.3 174.5,123 175.9,119.2 177.3,128.2 178,121.9 179.4,129.4 180.2,135.7 181.6,140.3 183.7,156.2 185.1,163.9 186.6,167.4 187.3,157.3 189.4,167.6 190.8,144.1 191.6,145.8 192.3,149.4 193.7,144.8 195.8,159.5 197.3,154.1 198.7,163.4 199.4,166.4 201.5,176.5 202.2,166.2 204.4,175.1 205.1,176.5 206.5,181.4 207.9,180.6 209.4,186 210.8,190.3 211.5,192.7 213.6,196.8 214.4,194.1 215.8,197.9 217.2,199.7 217.9,201.2 220.1,199.9 220.8,191.5 222.2,190.6 224.3,197.2 225.8,193 227.2,196.2 228.6,197 230,196.1 230.7,184.3 231.5,187.1 232.9,188.8 235,171.9 236.4,176.9 237.2,173.7 238.6,174.1 240.7,182.5 242.1,143.5 242.9,146.2 243.6,142.5 245.7,157.4 247.1,160.5 248.6,168.8 249.3,156.7 251.4,165 252.8,169.1 253.5,158.9 255.7,166.5 256.4,166.2 257.1,152.8 259.2,154.8 260,158.9 262.1,165.2 263.5,156.9 264.2,160.8 265.7,166.2 267.8,176.2 268.5,173.8 269.2,177.3 270.6,147 272.1,148.3 273.5,132.1 275.6,144.6 276.3,139.6 278.5,139.5 279.2,142.8 281.3,155.2 282.1,159.8 282.8,153.4 284.9,150.6 285.6,141.9 287,152.1 289.2,161.9 290.6,163.9 291.3,153.2 292.7,159.2 294.2,149.6 295.6,156.7 296.3,157 298.4,169.5 299.9,144.9 300.6,144.2 302.7,154.1 303.4,149.2 304.9,157 306.3,162.8 307.7,154.1 308.4,138.9 309.8,146.6 312,145.4 313.4,153.2 314.1,146.1 315.5,150.4 317.7,164.2 318.4,168.4 319.8,164.8 321.2,171.9 322.7,162.8 324.1,166.7 324.8,166.6 326.9,176.2 327.7,170.2 329.8,179.1 330.5,180.6 331.9,184 333.4,189.5 334.8,193.4 336.2,188.9 337.6,192.5 338.3,194.7 339.8,188.5 341.9,194.9 343.3,197.9 344,183.3 345.5,188.4 346.9,187.6 348.3,170.1 349,167.8 351.2,175.8 352.6,179.8 354,178.1 354.7,181.6 356.9,181.2 357.6,178.1 359,175.5 360.4,160.4 361.1,164.8 363.3,167.4 364.7,137.6 365.4,143.1 366.8,141.3 369,156.6 370.4,165.6 371.1,168.7 372.5,175.9 374,178.8 375.4,185.2 376.1,185 378.2,191.1 379,187.6 380.4,192.7 381.8,196.6 383.2,198.6 383.9,200 386.1,202 387.5,191.2 388.9,194.9 389.7,196.8 391.1,196.3 393.2,201.2 394.6,202.5 395.4,199.7 396.8,201.7 398.2,204 399.6,202.6 401.1,203 402.5,194.8 403.9,198.7 405.3,202 406,203.1 408.2,205.4 408.9,205.6 410.3,208.1 411.7,196.3 413.2,200.3 414.6,192.2 415.3,191.4 417.4,197.6 418.2,191.2 419.6,194.6 421.7,196.8 422.4,194.1 423.9,189.3 425.3,193.4 426.7,194.8 428.1,199.2 429.6,202.6 430.3,203.1 431.7,185.8 433.1,189.1 434.5,193.3 435.3,192.7 437.4,193 438.8,197.5 439.5,199.6 441.7,204.2 443.1,206.2 443.8,205.9 445.9,209.5 447.4,211.1 448.1,207.8 448.8,207.6 450.9,206.7 451.6,208.2 453.8,210.7 455.2,212.1 456.6,213 457.3,213.8 458.8,210.5 460.2,212.4 460.9,210.4 463,213.3 464.5,213.7 465.9,215.5 466.6,211.4 468.7,213.3 469.5,214.2 470.9,209 472.3,211.2 473.7,213 474.4,212.9 475.9,210.3 478,212.6 478.7,208.2 480.1,210.4 481.6,208.1 483,209.5 485.1,207.3 485.8,208.6 487.3,209.4 488,207.5 489.4,207.6 490.8,210.3 493,213.3 494.4,215.2 495.8,215.1 497.3,209.1 498,208.8 499.4,210.5 500.8,194.8 501.5,192.5 503.7,197 505.1,182 506.5,180.3 507.2,173.5 508.7,169.6 510.8,175.8 511.5,155.8 512.9,152.1 514.4,159.7 515.1,159 517.2,150.7 518.6,157.5 520.1,159.7 521.5,168.2 522.2,170.1 523.6,176.5 525,180.2 526.5,174.1 527.9,178.9 529.3,182.8 530,181.5 532.2,186.3 532.9,182.7 534.3,177.8 535.7,182.5 537.2,188.2 538.6,181.6 539.3,184.8 541.4,189.9 542.1,188.3 543.6,192.2 545.7,195.7 546.4,189.1 548.6,195.2 550,193.9 550.7,185.4 552.1,188.1 553.5,192.9 555,195.3 556.4,185.5 557.1,187.5 558.5,185.6 560,190.2 562.1,191.4 562.8,158.9 563.5,154.5 565.7,159.4 567.1,166.6 568.5,148 569.9,155.3 570.6,153.6 572.8,157.5 574.2,112.4 575.6,123.2 576.3,92.1 577.1,87 578.5,102.1 580.6,110.2 582,71.1 583.5,78.5 584.2,59.3 586.3,83 587.7,63.5 588.5,69.2 589.2,78.5 590.6,78.3 592.7,104 594.2,118.1 594.9,109.8 596.3,117.9 598.4,103 599.1,79.8 600.6,93 602,102.6" fill="none" stroke="#3A56C5" stroke-width="2" stroke-linejoin="round" stroke-linecap="round"><title>annualised daily volatility</title></polyline>
  <circle cx="602" cy="102.6" r="4" fill="#3A56C5" stroke="#FBFBF8" stroke-width="2"><title>annualised daily volatility: 29%</title></circle>
  <text x="614" y="106.6" font-size="11" fill="#1F2C38">29%</text>
</svg>
