<svg viewBox="0 0 720 300" xmlns="http://www.w3.org/2000/svg" style="font-family:'IBM Plex Sans',sans-serif" role="img" aria-label="The recovered spread over 10 years — half-life ≈ 16 trading days">
  <text x="26" y="22" font-size="11" font-weight="600" fill="#1F2C38">THE RECOVERED SPREAD OVER 10 YEARS — HALF-LIFE ≈ 16 TRADING DAYS</text>
  <line x1="64" y1="264" x2="602" y2="264" stroke="#E4E8EC" stroke-width="1"/>
  <text x="56" y="268" font-size="11" text-anchor="end" fill="#4A5A68" style="font-variant-numeric:tabular-nums">15.0</text>
  <line x1="64" y1="208" x2="602" y2="208" stroke="#E4E8EC" stroke-width="1"/>
  <text x="56" y="212" font-size="11" text-anchor="end" fill="#4A5A68" style="font-variant-numeric:tabular-nums">20.0</text>
  <line x1="64" y1="152" x2="602" y2="152" stroke="#E4E8EC" stroke-width="1"/>
  <text x="56" y="156" font-size="11" text-anchor="end" fill="#4A5A68" style="font-variant-numeric:tabular-nums">25.0</text>
  <line x1="64" y1="96" x2="602" y2="96" stroke="#E4E8EC" stroke-width="1"/>
  <text x="56" y="100" font-size="11" text-anchor="end" fill="#4A5A68" style="font-variant-numeric:tabular-nums">30.0</text>
  <line x1="64" y1="40" x2="602" y2="40" stroke="#E4E8EC" stroke-width="1"/>
  <text x="56" y="44" font-size="11" text-anchor="end" fill="#4A5A68" style="font-variant-numeric:tabular-nums">35.0</text>
  <line x1="64" y1="264" x2="602" y2="264" stroke="#C9CFC6" stroke-width="1"/>
  <line x1="63.8" y1="264" x2="63.8" y2="268" stroke="#C9CFC6" stroke-width="1"/>
  <text x="63.8" y="282" font-size="11" text-anchor="middle" fill="#4A5A68">0</text>
  <line x1="171.4" y1="264" x2="171.4" y2="268" stroke="#C9CFC6" stroke-width="1"/>
  <text x="171.4" y="282" font-size="11" text-anchor="middle" fill="#4A5A68">2</text>
  <line x1="279.1" y1="264" x2="279.1" y2="268" stroke="#C9CFC6" stroke-width="1"/>
  <text x="279.1" y="282" font-size="11" text-anchor="middle" fill="#4A5A68">4</text>
  <line x1="386.7" y1="264" x2="386.7" y2="268" stroke="#C9CFC6" stroke-width="1"/>
  <text x="386.7" y="282" font-size="11" text-anchor="middle" fill="#4A5A68">6</text>
  <line x1="494.4" y1="264" x2="494.4" y2="268" stroke="#C9CFC6" stroke-width="1"/>
  <text x="494.4" y="282" font-size="11" text-anchor="middle" fill="#4A5A68">8</text>
  <line x1="602" y1="264" x2="602" y2="268" stroke="#C9CFC6" stroke-width="1"/>
  <text x="602" y="282" font-size="11" text-anchor="middle" fill="#4A5A68">10</text>
  <line x1="64" y1="154.7" x2="602" y2="154.7" stroke="#4A5A68" stroke-width="1"/>
  <polyline points="64,152 64.4,170.7 65.5,189.8 66.8,209.6 68.7,183.4 70.6,125.5 71,155.6 72.8,108.8 74.3,102.4 75.7,128.6 77.2,98.9 78.3,125 79.2,103.6 80.4,135 82.6,156.9 83.4,130.8 84.5,127.6 85.8,161.1 87.9,163.9 88.8,131.3 90.1,164.1 91.3,121.6 92.4,155 94.8,157.5 95.6,155.4 96.7,184.4 98.2,208.5 99.5,151.5 101.6,133.8 103.1,162.8 104.2,125.8 105.6,155.6 106.9,109.2 108.4,120.7 109.1,75.6 111,107.2 112.5,175.8 113.1,196.4 114.2,169.8 115.5,193.5 117.2,165.8 118.5,202.4 120.4,185.6 121,150 122.9,171.5 124.2,205.7 125.9,215 127,168.9 128.7,181.9 129.4,181.7 130.4,129.8 132.6,147.7 133.2,176.6 134.3,161.6 136,191.7 137.5,155.1 138.8,173.4 139.8,221.1 141.5,203.9 143.7,198 144.7,154.3 145.4,175.9 147.1,131.2 148.6,154.2 149.9,129.6 151.8,140 152.6,118.2 153.7,138.4 155.6,151 156.7,121.1 157.8,106 158.6,134.6 160.5,144 161.4,118.5 163.1,103.7 164.8,90.3 165.7,125.4 167.2,102.2 168.9,137.5 170.1,186 172.1,148.6 173.4,184.9 174.6,175.5 175.9,200 176.6,184.2 178.1,190.3 179.5,144.4 180.4,156.1 182.3,130.4 183.4,158.1 184.7,129.1 186.4,149.6 187,115.6 189.2,123.9 190.9,87.4 191.5,82.5 193,106.1 194.3,91.3 195.3,85.6 197.5,125.7 198.3,163.9 200.3,128.6 200.7,126.7 202,163.2 203.3,173.4 205,113.6 206.7,159.7 207.3,150.2 208.6,206.9 210.1,226.5 212.4,217.2 213.3,188.1 214.8,168.5 215.4,193.7 217.1,164.3 218.4,175.2 219.5,140.7 221.4,152.2 223.1,100.1 224,81 225.5,117.5 226.5,108.5 228.2,162.5 229.3,146.3 231.4,181.7 232.5,157.9 233.6,207.9 234.6,172 235.7,184 237,136.7 239.1,144.9 240.4,103.6 241.3,129.6 243.6,142.4 244.7,127.7 245.3,115.8 246.6,149.4 249,128.6 250.5,172.2 251.5,148.9 252.6,188.3 254.5,139.1 255.8,166.6 256.9,173 257.7,113.5 258.8,143.8 260.7,157.8 261.6,142.1 262.8,166 264.3,151.1 266.5,150.9 267.5,188.8 268.2,163.8 269.7,195.7 272,189.5 273.1,121.5 273.9,99.7 275,140.7 276.9,129.1 277.8,164.6 279.5,166.5 280.8,143.7 282.3,131.7 283.3,167.4 284.4,141.7 286.8,182.4 287.4,176.5 289.1,192.9 290.6,149.5 292.1,186.9 293,174.5 294,197.7 296.2,195 296.6,180.8 297.9,185.5 300,150.8 300.6,173 302.4,183.5 304.1,135.8 305.8,119.6 307.1,154.5 307.9,130 309.8,151.9 310.7,141.8 311.3,162.7 313.5,147.4 314.1,177.4 316,206.3 317.3,219.5 318.2,180.2 319.7,160.2 322,192.4 322.4,176.3 324.1,161.4 325.4,203.5 326.7,209 328,175.2 329.3,170.5 331,193.7 332.3,206.9 334,174 334.6,167.4 336.7,178.3 337.6,143.9 338.9,148 340.4,190.5 341.2,164.4 343.4,196.8 344,170.2 345.9,192 346.8,141.9 347.8,188.6 350.4,137.7 351,166.2 352.5,113 353.6,131.6 354.7,111 356.2,132.4 357.9,110 359.8,187.3 361.1,192.7 362.6,159.8 362.8,173.7 365.1,171.9 366,183.7 367.9,177.4 368.3,160.3 370.7,167.6 371.6,161.8 372.6,100.1 374.5,141.1 375.2,109.1 377.1,84.7 378.6,103.8 380.1,163 381.2,134.7 382.4,175.7 383.7,191.2 384.6,151.7 385.9,162.8 387.6,147.4 388.9,95.2 389.7,123.2 392.3,111.5 392.9,131.6 394.2,110 395.5,154.3 397.6,110.9 398.7,146.9 399.3,125 401.5,128.6 402.5,168.3 404,190.4 405.1,192.4 405.9,172.6 408.3,202.8 409.1,168.7 411.1,195.6 412.3,179.8 413,216 415.1,187.7 415.5,211 417,223.5 418.1,195.2 419.4,200.8 420.9,171.5 422.6,215.2 424.1,158.7 425.4,137.5 427.3,173.4 428.1,137.7 430.1,119 430.7,94.8 431.8,91 433.3,146.6 435,119.5 435.6,146.3 437.8,143.3 439.3,177.9 440.3,159.8 441.6,173.8 443.5,164.9 444.6,200.1 445.2,191.6 446.5,223.5 447.8,207.7 450.4,127.6 451,138.9 452.7,139.8 453.4,106.7 455.5,81.7 457.2,147.9 457.8,134.1 458.7,154 460.4,114.2 462.1,128.7 463.2,181.7 465.1,193.8 466.4,152.7 467.7,144.8 469.2,177.9 470.2,188.4 470.9,180.1 472.4,206.5 474.1,128.5 475.3,156.2 476.8,128.1 478.3,151.4 479.6,128 481.3,155.3 482.2,109.4 484.1,141.8 484.5,111.8 485.6,136 487.1,144.9 488.8,183.7 489.7,166.8 491.8,180 493.3,157.3 494.8,154.9 496.3,177.8 497.6,137.7 498.2,131.2 499.3,181.1 501.2,181.8 503.1,155.9 504.2,169.4 504.6,135 506.1,211.6 507.4,163.3 509.5,111.9 510.8,117.6 512.1,167.4 512.9,171.9 514.6,110.7 516.6,151.6 517.6,123.8 519.1,153.9 519.6,160.4 521.3,144.1 522.5,178.2 524.5,147.6 524.9,155.2 527.2,97 528.7,134.8 529.8,116.9 530.7,178.2 531.9,135.1 533.7,178.3 534.5,145.9 536.9,134.6 537.1,151 539,142.6 540.7,116.3 541.1,140.4 542.4,119.3 544.8,173.8 546.3,148.4 547.3,101.2 549,100.9 550.3,155.7 551.6,145.8 552.7,163.3 554.2,140.2 555.7,142.9 556.7,178.6 557.8,156.9 559.5,197.5 561.2,184.3 562.1,203.4 563.8,191.5 564.8,213.8 566.5,204.8 567.6,162.4 568.3,196.5 570.6,85.8 571.9,112 573.4,84.6 573.8,102.6 575.9,81.5 577.4,87.1 578.5,140.7 579.1,127.2 580.4,143.1 582.6,115.5 584.1,106.7 585.3,144.8 585.8,144.1 587.9,194.3 589,207.5 590.3,186 591.1,208 592.4,179.7 593.9,211.9 595.8,155.9 597.5,184.2 598.8,171.9 599.7,201.7 601.4,176.1 602,190.1" fill="none" stroke="#3A56C5" stroke-width="2" stroke-linejoin="round" stroke-linecap="round"><title>A − h·B</title></polyline>
</svg>
